# xmcd
#
# Track frame offsets: 
#        150
#        10923
#        23421
#        37569
#        50592
#        63840
#        78213
#        93111
#        105459
#        119832
#        137730
#        152403
#        164151
#        175299
#        187122
#        204495
#        217443
#        233166
#        247539
#
# Disc length: 3463 seconds
#
# Revision: 2
# Processed by: cddbd v1.5.2PL0 Copyright (c) Steve Scherf et al.
# Submitted via: ExactAudioCopy v1.1
#
DISCID=f30d8513
DTITLE=David Hartley - Once A Day
DYEAR=2008
DGENRE=Steel
TTITLE0=Once A Day
TTITLE1=Hinges On The Door
TTITLE2=If You Were Me
TTITLE3=Walking After Midnight
TTITLE4=Dirty Little Town
TTITLE5=Crying Time
TTITLE6=98.6 Degrees And Falling
TTITLE7=Truck Driving Man
TTITLE8=Grand Tour
TTITLE9=When You Say Nothing At All
TTITLE10=Coal Miners Daughter
TTITLE11=Thinking About Things
TTITLE12=Meat And Potato Man
TTITLE13=Www. Memory
TTITLE14=I Fall To Pieces
TTITLE15=Send Me The Pillow
TTITLE16=I Fell In Love
TTITLE17=Save The Last Dance For Me
TTITLE18=Pick Me Up On Your Way Down
EXTD=
EXTT0=
EXTT1=
EXTT2=
EXTT3=
EXTT4=
EXTT5=
EXTT6=
EXTT7=
EXTT8=
EXTT9=
EXTT10=
EXTT11=
EXTT12=
EXTT13=
EXTT14=
EXTT15=
EXTT16=
EXTT17=
EXTT18=
PLAYORDER=
